<svg width="288" height="288" viewBox="0 0 288 288" fill="none" xmlns="http://www.w3.org/2000/svg">
<rect width="288" height="288" fill="#4B0082"/>
<path d="M40.7133 129V83.1818H68.1863V88.1037H46.2616V103.585H66.1281V108.507H46.2616V129H40.7133ZM116.348 106.091C116.348 110.923 115.475 115.099 113.73 118.619C111.985 122.139 109.592 124.854 106.549 126.763C103.506 128.672 100.031 129.626 96.1236 129.626C92.2159 129.626 88.7408 128.672 85.6982 126.763C82.6555 124.854 80.2617 122.139 78.5167 118.619C76.7717 115.099 75.8991 110.923 75.8991 106.091C75.8991 101.259 76.7717 97.0824 78.5167 93.5625C80.2617 90.0426 82.6555 87.3281 85.6982 85.419C88.7408 83.5099 92.2159 82.5554 96.1236 82.5554C100.031 82.5554 103.506 83.5099 106.549 85.419C109.592 87.3281 111.985 90.0426 113.73 93.5625C115.475 97.0824 116.348 101.259 116.348 106.091ZM110.979 106.091C110.979 102.124 110.315 98.7752 108.988 96.0458C107.675 93.3164 105.893 91.2507 103.641 89.8487C101.403 88.4467 98.8977 87.7457 96.1236 87.7457C93.3494 87.7457 90.8363 88.4467 88.5842 89.8487C86.3469 91.2507 84.5646 93.3164 83.2372 96.0458C81.9247 98.7752 81.2685 102.124 81.2685 106.091C81.2685 110.058 81.9247 113.407 83.2372 116.136C84.5646 118.865 86.3469 120.931 88.5842 122.333C90.8363 123.735 93.3494 124.436 96.1236 124.436C98.8977 124.436 101.403 123.735 103.641 122.333C105.893 120.931 107.675 118.865 108.988 116.136C110.315 113.407 110.979 110.058 110.979 106.091ZM162.547 97.5H156.998C156.67 95.9041 156.096 94.5021 155.276 93.294C154.47 92.0859 153.486 91.0717 152.322 90.2514C151.174 89.4162 149.899 88.7898 148.497 88.3722C147.095 87.9545 145.633 87.7457 144.112 87.7457C141.338 87.7457 138.825 88.4467 136.572 89.8487C134.335 91.2507 132.553 93.3164 131.225 96.0458C129.913 98.7752 129.257 102.124 129.257 106.091C129.257 110.058 129.913 113.407 131.225 116.136C132.553 118.865 134.335 120.931 136.572 122.333C138.825 123.735 141.338 124.436 144.112 124.436C145.633 124.436 147.095 124.227 148.497 123.81C149.899 123.392 151.174 122.773 152.322 121.953C153.486 121.118 154.47 120.096 155.276 118.888C156.096 117.665 156.67 116.263 156.998 114.682H162.547C162.129 117.023 161.368 119.119 160.265 120.968C159.161 122.818 157.789 124.391 156.148 125.689C154.507 126.972 152.665 127.949 150.622 128.62C148.594 129.291 146.424 129.626 144.112 129.626C140.204 129.626 136.729 128.672 133.686 126.763C130.644 124.854 128.25 122.139 126.505 118.619C124.76 115.099 123.887 110.923 123.887 106.091C123.887 101.259 124.76 97.0824 126.505 93.5625C128.25 90.0426 130.644 87.3281 133.686 85.419C136.729 83.5099 140.204 82.5554 144.112 82.5554C146.424 82.5554 148.594 82.891 150.622 83.5621C152.665 84.2333 154.507 85.2177 156.148 86.5153C157.789 87.7979 159.161 89.364 160.265 91.2134C161.368 93.0479 162.129 95.1435 162.547 97.5ZM201.58 83.1818H207.129V113.518C207.129 116.651 206.39 119.447 204.914 121.908C203.452 124.354 201.386 126.286 198.717 127.702C196.047 129.104 192.915 129.805 189.32 129.805C185.726 129.805 182.594 129.104 179.924 127.702C177.254 126.286 175.181 124.354 173.705 121.908C172.243 119.447 171.512 116.651 171.512 113.518V83.1818H177.06V113.071C177.06 115.308 177.553 117.299 178.537 119.044C179.521 120.775 180.923 122.139 182.743 123.138C184.578 124.123 186.77 124.615 189.32 124.615C191.871 124.615 194.063 124.123 195.898 123.138C197.732 122.139 199.134 120.775 200.104 119.044C201.088 117.299 201.58 115.308 201.58 113.071V83.1818ZM243.265 94.6364C242.997 92.3693 241.908 90.6094 239.999 89.3565C238.09 88.1037 235.748 87.4773 232.974 87.4773C230.946 87.4773 229.171 87.8054 227.65 88.4616C226.143 89.1179 224.965 90.0202 224.115 91.1687C223.279 92.3171 222.862 93.6222 222.862 95.0838C222.862 96.3068 223.153 97.3583 223.734 98.2383C224.331 99.1033 225.092 99.8267 226.016 100.408C226.941 100.975 227.911 101.445 228.925 101.818C229.939 102.176 230.871 102.467 231.721 102.69L236.375 103.943C237.568 104.256 238.895 104.689 240.357 105.241C241.833 105.793 243.243 106.546 244.585 107.5C245.942 108.44 247.061 109.648 247.941 111.125C248.821 112.601 249.261 114.413 249.261 116.561C249.261 119.037 248.612 121.274 247.315 123.273C246.032 125.271 244.153 126.86 241.677 128.038C239.216 129.216 236.225 129.805 232.706 129.805C229.424 129.805 226.583 129.276 224.182 128.217C221.795 127.158 219.916 125.681 218.544 123.787C217.187 121.893 216.419 119.693 216.24 117.188H221.967C222.116 118.918 222.698 120.349 223.712 121.483C224.741 122.602 226.039 123.437 227.605 123.989C229.186 124.526 230.886 124.794 232.706 124.794C234.824 124.794 236.725 124.451 238.411 123.765C240.096 123.064 241.431 122.094 242.415 120.857C243.4 119.604 243.892 118.142 243.892 116.472C243.892 114.95 243.467 113.712 242.616 112.758C241.766 111.803 240.648 111.028 239.261 110.431C237.874 109.835 236.375 109.312 234.764 108.865L229.126 107.254C225.547 106.225 222.713 104.756 220.625 102.847C218.537 100.938 217.493 98.4396 217.493 95.3523C217.493 92.7869 218.186 90.5497 219.573 88.6406C220.975 86.7166 222.854 85.2251 225.211 84.1662C227.582 83.0923 230.23 82.5554 233.153 82.5554C236.106 82.5554 238.731 83.0849 241.028 84.1438C243.325 85.1879 245.145 86.6197 246.487 88.4393C247.844 90.2589 248.56 92.3246 248.635 94.6364H243.265ZM101.901 159.182V205H96.5319L71.5645 169.026H71.1171V205H65.5688V159.182H70.9381L95.9949 195.246H96.4424V159.182H101.901ZM113.003 205V159.182H140.655V164.104H118.552V179.585H139.224V184.507H118.552V200.078H141.013V205H113.003ZM152.535 205H146.718L163.542 159.182H169.269L186.093 205H180.276L166.585 166.43H166.227L152.535 205ZM154.683 187.102H178.129V192.024H154.683V187.102ZM193.23 205V159.182H208.711C212.291 159.182 215.229 159.793 217.526 161.016C219.823 162.224 221.523 163.887 222.627 166.005C223.731 168.123 224.282 170.532 224.282 173.232C224.282 175.931 223.731 178.325 222.627 180.413C221.523 182.501 219.83 184.142 217.548 185.335C215.267 186.513 212.351 187.102 208.801 187.102H196.273V182.091H208.622C211.068 182.091 213.037 181.733 214.528 181.017C216.035 180.301 217.123 179.287 217.795 177.974C218.481 176.647 218.824 175.066 218.824 173.232C218.824 171.397 218.481 169.794 217.795 168.422C217.108 167.049 216.012 165.99 214.506 165.245C212.999 164.484 211.008 164.104 208.532 164.104H198.778V205H193.23ZM214.797 184.418L226.072 205H219.629L208.532 184.418H214.797Z" fill="white"/>
</svg>
