<svg width="288" height="288" viewBox="0 0 288 288" fill="none" xmlns="http://www.w3.org/2000/svg">
<rect width="288" height="288" fill="#4B0082"/>
<path d="M43.1284 135C42.894 133.021 41.9435 131.484 40.2769 130.391C38.6102 129.297 36.5659 128.75 34.144 128.75C32.3732 128.75 30.8237 129.036 29.4956 129.609C28.1805 130.182 27.1519 130.97 26.4097 131.973C25.6805 132.975 25.3159 134.115 25.3159 135.391C25.3159 136.458 25.5698 137.376 26.0776 138.145C26.5985 138.9 27.2625 139.531 28.0698 140.039C28.8771 140.534 29.7235 140.944 30.6089 141.27C31.4943 141.582 32.3081 141.836 33.0503 142.031L37.1128 143.125C38.1545 143.398 39.3133 143.776 40.5894 144.258C41.8784 144.74 43.1089 145.397 44.2808 146.23C45.4657 147.051 46.4422 148.105 47.2105 149.395C47.9787 150.684 48.3628 152.266 48.3628 154.141C48.3628 156.302 47.7964 158.255 46.6636 160C45.5438 161.745 43.9032 163.132 41.7417 164.16C39.5933 165.189 36.9826 165.703 33.9097 165.703C31.0451 165.703 28.5646 165.241 26.4683 164.316C24.3849 163.392 22.7443 162.103 21.5464 160.449C20.3615 158.796 19.6909 156.875 19.5347 154.688H24.5347C24.6649 156.198 25.1727 157.448 26.0581 158.437C26.9565 159.414 28.0894 160.143 29.4565 160.625C30.8368 161.094 32.3211 161.328 33.9097 161.328C35.7586 161.328 37.4188 161.029 38.8901 160.43C40.3615 159.818 41.5269 158.971 42.3862 157.891C43.2456 156.797 43.6753 155.521 43.6753 154.062C43.6753 152.734 43.3042 151.654 42.562 150.82C41.8198 149.987 40.8433 149.31 39.6323 148.789C38.4214 148.268 37.1128 147.812 35.7065 147.422L30.7847 146.016C27.6597 145.117 25.1857 143.835 23.3628 142.168C21.5399 140.501 20.6284 138.32 20.6284 135.625C20.6284 133.385 21.2339 131.432 22.4448 129.766C23.6688 128.086 25.3094 126.784 27.3667 125.859C29.437 124.922 31.7482 124.453 34.3003 124.453C36.8784 124.453 39.1701 124.915 41.1753 125.84C43.1805 126.751 44.769 128.001 45.9409 129.59C47.1258 131.178 47.7508 132.982 47.8159 135H43.1284ZM56.3267 165V125H61.1704V142.812H82.4985V125H87.3423V165H82.4985V147.109H61.1704V165H56.3267ZM123.29 125H128.133V151.484C128.133 154.219 127.489 156.66 126.2 158.809C124.924 160.944 123.12 162.63 120.79 163.867C118.459 165.091 115.724 165.703 112.586 165.703C109.448 165.703 106.714 165.091 104.383 163.867C102.053 162.63 100.243 160.944 98.9536 158.809C97.6776 156.66 97.0396 154.219 97.0396 151.484V125H101.883V151.094C101.883 153.047 102.313 154.785 103.172 156.309C104.032 157.819 105.256 159.01 106.844 159.883C108.446 160.742 110.36 161.172 112.586 161.172C114.813 161.172 116.727 160.742 118.329 159.883C119.93 159.01 121.154 157.819 122 156.309C122.86 154.785 123.29 153.047 123.29 151.094V125ZM135.619 129.297V125H165.619V129.297H153.041V165H148.197V129.297H135.619ZM170.907 129.297V125H200.907V129.297H188.329V165H183.485V129.297H170.907ZM208.382 165V125H232.523V129.297H213.226V142.812H231.273V147.109H213.226V160.703H232.835V165H208.382ZM241.253 165V125H254.769C257.894 125 260.459 125.534 262.464 126.602C264.47 127.656 265.954 129.108 266.917 130.957C267.881 132.806 268.363 134.909 268.363 137.266C268.363 139.622 267.881 141.712 266.917 143.535C265.954 145.358 264.476 146.79 262.484 147.832C260.492 148.861 257.946 149.375 254.847 149.375H243.91V145H254.691C256.826 145 258.545 144.687 259.847 144.062C261.162 143.437 262.113 142.552 262.699 141.406C263.298 140.247 263.597 138.867 263.597 137.266C263.597 135.664 263.298 134.264 262.699 133.066C262.1 131.868 261.143 130.944 259.828 130.293C258.513 129.629 256.774 129.297 254.613 129.297H246.097V165H241.253ZM260.082 147.031L269.925 165H264.3L254.613 147.031H260.082Z" fill="white"/>
</svg>
