<svg width="288" height="288" viewBox="0 0 288 288" fill="none" xmlns="http://www.w3.org/2000/svg">
<rect width="288" height="288" fill="#4B0082"/>
<path d="M53.4039 129V124.973L78.1028 88.1037H53.1355V83.1818H84.725V87.2088L60.0261 124.078H84.9934V129H53.4039ZM130.806 106.091C130.806 110.923 129.934 115.099 128.188 118.619C126.443 122.139 124.05 124.854 121.007 126.763C117.964 128.672 114.489 129.626 110.582 129.626C106.674 129.626 103.199 128.672 100.156 126.763C97.1135 124.854 94.7197 122.139 92.9747 118.619C91.2297 115.099 90.3572 110.923 90.3572 106.091C90.3572 101.259 91.2297 97.0824 92.9747 93.5625C94.7197 90.0426 97.1135 87.3281 100.156 85.419C103.199 83.5099 106.674 82.5554 110.582 82.5554C114.489 82.5554 117.964 83.5099 121.007 85.419C124.05 87.3281 126.443 90.0426 128.188 93.5625C129.934 97.0824 130.806 101.259 130.806 106.091ZM125.437 106.091C125.437 102.124 124.773 98.7752 123.446 96.0458C122.133 93.3164 120.351 91.2507 118.099 89.8487C115.861 88.4467 113.356 87.7457 110.582 87.7457C107.807 87.7457 105.294 88.4467 103.042 89.8487C100.805 91.2507 99.0226 93.3164 97.6952 96.0458C96.3827 98.7752 95.7265 102.124 95.7265 106.091C95.7265 110.058 96.3827 113.407 97.6952 116.136C99.0226 118.865 100.805 120.931 103.042 122.333C105.294 123.735 107.807 124.436 110.582 124.436C113.356 124.436 115.861 123.735 118.099 122.333C120.351 120.931 122.133 118.865 123.446 116.136C124.773 113.407 125.437 110.058 125.437 106.091ZM178.794 106.091C178.794 110.923 177.922 115.099 176.177 118.619C174.432 122.139 172.038 124.854 168.995 126.763C165.953 128.672 162.478 129.626 158.57 129.626C154.662 129.626 151.187 128.672 148.144 126.763C145.102 124.854 142.708 122.139 140.963 118.619C139.218 115.099 138.345 110.923 138.345 106.091C138.345 101.259 139.218 97.0824 140.963 93.5625C142.708 90.0426 145.102 87.3281 148.144 85.419C151.187 83.5099 154.662 82.5554 158.57 82.5554C162.478 82.5554 165.953 83.5099 168.995 85.419C172.038 87.3281 174.432 90.0426 176.177 93.5625C177.922 97.0824 178.794 101.259 178.794 106.091ZM173.425 106.091C173.425 102.124 172.761 98.7752 171.434 96.0458C170.121 93.3164 168.339 91.2507 166.087 89.8487C163.85 88.4467 161.344 87.7457 158.57 87.7457C155.796 87.7457 153.283 88.4467 151.03 89.8487C148.793 91.2507 147.011 93.3164 145.684 96.0458C144.371 98.7752 143.715 102.124 143.715 106.091C143.715 110.058 144.371 113.407 145.684 116.136C147.011 118.865 148.793 120.931 151.03 122.333C153.283 123.735 155.796 124.436 158.57 124.436C161.344 124.436 163.85 123.735 166.087 122.333C168.339 120.931 170.121 118.865 171.434 116.136C172.761 113.407 173.425 110.058 173.425 106.091ZM188.123 83.1818H194.746L210.317 121.214H210.854L226.425 83.1818H233.047V129H227.856V94.1889H227.409L213.091 129H208.079L193.761 94.1889H193.314V129H188.123V83.1818ZM123.043 159.182V205H117.495V159.182H123.043ZM170.5 159.182V205H165.131L140.163 169.026H139.716V205H134.167V159.182H139.537L164.594 195.246H165.041V159.182H170.5Z" fill="white"/>
</svg>
