<svg width="288" height="288" viewBox="0 0 288 288" fill="none" xmlns="http://www.w3.org/2000/svg">
<rect width="288" height="288" fill="#4B0082"/>
<path d="M20.872 167V121.182H36.3536C39.9331 121.182 42.8713 121.793 45.1682 123.016C47.4651 124.224 49.1654 125.887 50.269 128.005C51.3727 130.123 51.9246 132.532 51.9246 135.232C51.9246 137.931 51.3727 140.325 50.269 142.413C49.1654 144.501 47.4725 146.142 45.1906 147.335C42.9086 148.513 39.9928 149.102 36.443 149.102H23.9146V144.091H36.2641C38.7101 144.091 40.6788 143.733 42.1703 143.017C43.6767 142.301 44.7655 141.287 45.4367 139.974C46.1227 138.647 46.4658 137.066 46.4658 135.232C46.4658 133.397 46.1227 131.794 45.4367 130.422C44.7506 129.049 43.6543 127.99 42.1479 127.245C40.6416 126.484 38.6504 126.104 36.1746 126.104H26.4203V167H20.872ZM42.4388 146.418L53.7144 167H47.2712L36.1746 146.418H42.4388ZM61.1699 167V121.182H88.8219V126.104H66.7182V141.585H87.39V146.507H66.7182V162.078H89.1798V167H61.1699ZM135.692 135.5H130.143C129.815 133.904 129.241 132.502 128.421 131.294C127.615 130.086 126.631 129.072 125.467 128.251C124.319 127.416 123.044 126.79 121.642 126.372C120.24 125.955 118.778 125.746 117.257 125.746C114.483 125.746 111.97 126.447 109.717 127.849C107.48 129.251 105.698 131.316 104.371 134.046C103.058 136.775 102.402 140.124 102.402 144.091C102.402 148.058 103.058 151.407 104.371 154.136C105.698 156.865 107.48 158.931 109.717 160.333C111.97 161.735 114.483 162.436 117.257 162.436C118.778 162.436 120.24 162.227 121.642 161.81C123.044 161.392 124.319 160.773 125.467 159.953C126.631 159.118 127.615 158.096 128.421 156.888C129.241 155.665 129.815 154.263 130.143 152.682H135.692C135.274 155.023 134.513 157.119 133.41 158.968C132.306 160.818 130.934 162.391 129.293 163.689C127.652 164.972 125.811 165.949 123.767 166.62C121.739 167.291 119.569 167.626 117.257 167.626C113.349 167.626 109.874 166.672 106.831 164.763C103.789 162.854 101.395 160.139 99.65 156.619C97.905 153.099 97.0324 148.923 97.0324 144.091C97.0324 139.259 97.905 135.082 99.65 131.562C101.395 128.043 103.789 125.328 106.831 123.419C109.874 121.51 113.349 120.555 117.257 120.555C119.569 120.555 121.739 120.891 123.767 121.562C125.811 122.233 127.652 123.218 129.293 124.515C130.934 125.798 132.306 127.364 133.41 129.213C134.513 131.048 135.274 133.143 135.692 135.5ZM183.316 144.091C183.316 148.923 182.444 153.099 180.699 156.619C178.954 160.139 176.56 162.854 173.517 164.763C170.475 166.672 167 167.626 163.092 167.626C159.184 167.626 155.709 166.672 152.666 164.763C149.624 162.854 147.23 160.139 145.485 156.619C143.74 153.099 142.867 148.923 142.867 144.091C142.867 139.259 143.74 135.082 145.485 131.562C147.23 128.043 149.624 125.328 152.666 123.419C155.709 121.51 159.184 120.555 163.092 120.555C167 120.555 170.475 121.51 173.517 123.419C176.56 125.328 178.954 128.043 180.699 131.562C182.444 135.082 183.316 139.259 183.316 144.091ZM177.947 144.091C177.947 140.124 177.283 136.775 175.956 134.046C174.643 131.316 172.861 129.251 170.609 127.849C168.372 126.447 165.866 125.746 163.092 125.746C160.318 125.746 157.805 126.447 155.552 127.849C153.315 129.251 151.533 131.316 150.205 134.046C148.893 136.775 148.237 140.124 148.237 144.091C148.237 148.058 148.893 151.407 150.205 154.136C151.533 156.865 153.315 158.931 155.552 160.333C157.805 161.735 160.318 162.436 163.092 162.436C165.866 162.436 168.372 161.735 170.609 160.333C172.861 158.931 174.643 156.865 175.956 154.136C177.283 151.407 177.947 148.058 177.947 144.091ZM192.645 167V121.182H208.127C211.707 121.182 214.645 121.793 216.942 123.016C219.239 124.224 220.939 125.887 222.042 128.005C223.146 130.123 223.698 132.532 223.698 135.232C223.698 137.931 223.146 140.325 222.042 142.413C220.939 144.501 219.246 146.142 216.964 147.335C214.682 148.513 211.766 149.102 208.216 149.102H195.688V144.091H208.038C210.484 144.091 212.452 143.733 213.944 143.017C215.45 142.301 216.539 141.287 217.21 139.974C217.896 138.647 218.239 137.066 218.239 135.232C218.239 133.397 217.896 131.794 217.21 130.422C216.524 129.049 215.428 127.99 213.921 127.245C212.415 126.484 210.424 126.104 207.948 126.104H198.194V167H192.645ZM214.212 146.418L225.488 167H219.045L207.948 146.418H214.212ZM247.083 167H232.943V121.182H247.709C252.154 121.182 255.957 122.099 259.119 123.934C262.281 125.753 264.704 128.371 266.39 131.786C268.075 135.187 268.918 139.259 268.918 144.001C268.918 148.774 268.068 152.883 266.367 156.328C264.667 159.759 262.191 162.399 258.94 164.248C255.688 166.083 251.736 167 247.083 167ZM238.492 162.078H246.725C250.513 162.078 253.652 161.347 256.143 159.886C258.634 158.424 260.491 156.343 261.714 153.644C262.937 150.944 263.548 147.73 263.548 144.001C263.548 140.303 262.944 137.118 261.736 134.449C260.528 131.764 258.724 129.706 256.322 128.274C253.921 126.827 250.931 126.104 247.351 126.104H238.492V162.078Z" fill="white"/>
</svg>
