<svg width="288" height="288" viewBox="0 0 288 288" fill="none" xmlns="http://www.w3.org/2000/svg">
<rect width="288" height="288" fill="#4B0082"/>
<path d="M54.4039 129V124.973L79.1028 88.1037H54.1355V83.1818H85.725V87.2088L61.0261 124.078H85.9934V129H54.4039ZM131.806 106.091C131.806 110.923 130.934 115.099 129.188 118.619C127.443 122.139 125.05 124.854 122.007 126.763C118.964 128.672 115.489 129.626 111.582 129.626C107.674 129.626 104.199 128.672 101.156 126.763C98.1135 124.854 95.7197 122.139 93.9747 118.619C92.2297 115.099 91.3572 110.923 91.3572 106.091C91.3572 101.259 92.2297 97.0824 93.9747 93.5625C95.7197 90.0426 98.1135 87.3281 101.156 85.419C104.199 83.5099 107.674 82.5554 111.582 82.5554C115.489 82.5554 118.964 83.5099 122.007 85.419C125.05 87.3281 127.443 90.0426 129.188 93.5625C130.934 97.0824 131.806 101.259 131.806 106.091ZM126.437 106.091C126.437 102.124 125.773 98.7752 124.446 96.0458C123.133 93.3164 121.351 91.2507 119.099 89.8487C116.861 88.4467 114.356 87.7457 111.582 87.7457C108.807 87.7457 106.294 88.4467 104.042 89.8487C101.805 91.2507 100.023 93.3164 98.6952 96.0458C97.3827 98.7752 96.7265 102.124 96.7265 106.091C96.7265 110.058 97.3827 113.407 98.6952 116.136C100.023 118.865 101.805 120.931 104.042 122.333C106.294 123.735 108.807 124.436 111.582 124.436C114.356 124.436 116.861 123.735 119.099 122.333C121.351 120.931 123.133 118.865 124.446 116.136C125.773 113.407 126.437 110.058 126.437 106.091ZM179.794 106.091C179.794 110.923 178.922 115.099 177.177 118.619C175.432 122.139 173.038 124.854 169.995 126.763C166.953 128.672 163.478 129.626 159.57 129.626C155.662 129.626 152.187 128.672 149.144 126.763C146.102 124.854 143.708 122.139 141.963 118.619C140.218 115.099 139.345 110.923 139.345 106.091C139.345 101.259 140.218 97.0824 141.963 93.5625C143.708 90.0426 146.102 87.3281 149.144 85.419C152.187 83.5099 155.662 82.5554 159.57 82.5554C163.478 82.5554 166.953 83.5099 169.995 85.419C173.038 87.3281 175.432 90.0426 177.177 93.5625C178.922 97.0824 179.794 101.259 179.794 106.091ZM174.425 106.091C174.425 102.124 173.761 98.7752 172.434 96.0458C171.121 93.3164 169.339 91.2507 167.087 89.8487C164.85 88.4467 162.344 87.7457 159.57 87.7457C156.796 87.7457 154.283 88.4467 152.03 89.8487C149.793 91.2507 148.011 93.3164 146.684 96.0458C145.371 98.7752 144.715 102.124 144.715 106.091C144.715 110.058 145.371 113.407 146.684 116.136C148.011 118.865 149.793 120.931 152.03 122.333C154.283 123.735 156.796 124.436 159.57 124.436C162.344 124.436 164.85 123.735 167.087 122.333C169.339 120.931 171.121 118.865 172.434 116.136C173.761 113.407 174.425 110.058 174.425 106.091ZM189.123 83.1818H195.746L211.317 121.214H211.854L227.425 83.1818H234.047V129H228.856V94.1889H228.409L214.091 129H209.079L194.761 94.1889H194.314V129H189.123V83.1818ZM121.655 182.091C121.655 186.923 120.782 191.099 119.037 194.619C117.292 198.139 114.898 200.854 111.856 202.763C108.813 204.672 105.338 205.626 101.43 205.626C97.5226 205.626 94.0474 204.672 91.0048 202.763C87.9622 200.854 85.5684 198.139 83.8233 194.619C82.0783 191.099 81.2058 186.923 81.2058 182.091C81.2058 177.259 82.0783 173.082 83.8233 169.562C85.5684 166.043 87.9622 163.328 91.0048 161.419C94.0474 159.51 97.5226 158.555 101.43 158.555C105.338 158.555 108.813 159.51 111.856 161.419C114.898 163.328 117.292 166.043 119.037 169.562C120.782 173.082 121.655 177.259 121.655 182.091ZM116.285 182.091C116.285 178.124 115.622 174.775 114.294 172.046C112.982 169.316 111.199 167.251 108.947 165.849C106.71 164.447 104.204 163.746 101.43 163.746C98.6561 163.746 96.1429 164.447 93.8908 165.849C91.6536 167.251 89.8713 169.316 88.5439 172.046C87.2314 174.775 86.5751 178.124 86.5751 182.091C86.5751 186.058 87.2314 189.407 88.5439 192.136C89.8713 194.865 91.6536 196.931 93.8908 198.333C96.1429 199.735 98.6561 200.436 101.43 200.436C104.204 200.436 106.71 199.735 108.947 198.333C111.199 196.931 112.982 194.865 114.294 192.136C115.622 189.407 116.285 186.058 116.285 182.091ZM161.052 159.182H166.6V189.518C166.6 192.651 165.862 195.447 164.385 197.908C162.924 200.354 160.858 202.286 158.188 203.702C155.519 205.104 152.387 205.805 148.792 205.805C145.198 205.805 142.066 205.104 139.396 203.702C136.726 202.286 134.653 200.354 133.176 197.908C131.715 195.447 130.984 192.651 130.984 189.518V159.182H136.532V189.071C136.532 191.308 137.024 193.299 138.009 195.044C138.993 196.775 140.395 198.139 142.215 199.138C144.049 200.123 146.242 200.615 148.792 200.615C151.343 200.615 153.535 200.123 155.369 199.138C157.204 198.139 158.606 196.775 159.575 195.044C160.56 193.299 161.052 191.308 161.052 189.071V159.182ZM175.174 164.104V159.182H209.538V164.104H195.13V205H189.582V164.104H175.174Z" fill="white"/>
</svg>
