<svg width="850" height="850" viewBox="0 0 850 850" fill="none" xmlns="http://www.w3.org/2000/svg">

<g>
<path d="M102.675 136H747.57C763.281 136 776 148.718 776 164.386V507.84C776 523.508 763.281 536.226 747.57 536.226H102.675C86.9645 536.226 74.245 523.508 74.245 507.84V164.386C74.245 148.718 86.9645 136 102.675 136Z" fill="#DFDFDF" stroke="#DFDFDF" stroke-width="16"/>
<path d="M600.531 256.095V191.164H713.345V256.095H600.531Z" fill="black" stroke="black" stroke-width="6" stroke-linejoin="bevel"/>
<path d="M86 602H169.353C178.19 602 185.353 609.163 185.353 618V701.202C185.353 710.039 178.19 717.202 169.353 717.202H86C77.1635 717.202 70 710.039 70 701.202V618C70 609.163 77.1634 602 86 602Z" fill="#DFDFDF" stroke="#DFDFDF" stroke-width="8"/>
<path d="M284 602H367.353C376.19 602 383.353 609.163 383.353 618V701.202C383.353 710.039 376.19 717.202 367.353 717.202H284C275.163 717.202 268 710.039 268 701.202V618C268 609.163 275.163 602 284 602Z" fill="#DFDFDF" stroke="#DFDFDF" stroke-width="8"/>
<path d="M482 602H565.353C574.19 602 581.353 609.163 581.353 618V701.202C581.353 710.039 574.19 717.202 565.353 717.202H482C473.163 717.202 466 710.039 466 701.202V618C466 609.163 473.163 602 482 602Z" fill="#DFDFDF" stroke="#DFDFDF" stroke-width="8"/>
<path d="M680 602H763.353C772.19 602 779.353 609.163 779.353 618V701.202C779.353 710.039 772.19 717.202 763.353 717.202H680C671.163 717.202 664 710.039 664 701.202V618C664 609.163 671.163 602 680 602Z" fill="#DFDFDF" stroke="#DFDFDF" stroke-width="8"/>
<path d="M425 459C486.856 459 537 410.647 537 351C537 291.353 486.856 243 425 243C363.144 243 313 291.353 313 351C313 410.647 363.144 459 425 459Z" fill="black"/>
</g>
</svg>
