<svg width="288" height="288" viewBox="0 0 288 288" fill="none" xmlns="http://www.w3.org/2000/svg">
<rect width="288" height="288" fill="#4B0082"/>
<path d="M153.869 132H142.597C141.93 128.758 140.763 125.909 139.097 123.455C137.46 121 135.46 118.939 133.097 117.273C130.763 115.576 128.172 114.303 125.324 113.455C122.475 112.606 119.506 112.182 116.415 112.182C110.778 112.182 105.672 113.606 101.097 116.455C96.5511 119.303 92.9299 123.5 90.233 129.045C87.5663 134.591 86.233 141.394 86.233 149.455C86.233 157.515 87.5663 164.318 90.233 169.864C92.9299 175.409 96.5511 179.606 101.097 182.455C105.672 185.303 110.778 186.727 116.415 186.727C119.506 186.727 122.475 186.303 125.324 185.455C128.172 184.606 130.763 183.348 133.097 181.682C135.46 179.985 137.46 177.909 139.097 175.455C140.763 172.97 141.93 170.121 142.597 166.909H153.869C153.021 171.667 151.475 175.924 149.233 179.682C146.991 183.439 144.203 186.636 140.869 189.273C137.536 191.879 133.794 193.864 129.642 195.227C125.521 196.591 121.112 197.273 116.415 197.273C108.475 197.273 101.415 195.333 95.233 191.455C89.0511 187.576 84.1875 182.061 80.642 174.909C77.0966 167.758 75.3239 159.273 75.3239 149.455C75.3239 139.636 77.0966 131.152 80.642 124C84.1875 116.848 89.0511 111.333 95.233 107.455C101.415 103.576 108.475 101.636 116.415 101.636C121.112 101.636 125.521 102.318 129.642 103.682C133.794 105.045 137.536 107.045 140.869 109.682C144.203 112.288 146.991 115.47 149.233 119.227C151.475 122.955 153.021 127.212 153.869 132ZM203.176 102.909V196H191.903V114.727H191.358L168.631 129.818V118.364L191.903 102.909H203.176Z" fill="white"/>
</svg>
