<svg width="288" height="288" viewBox="0 0 288 288" fill="none" xmlns="http://www.w3.org/2000/svg">
<rect width="288" height="288" fill="#4B0082"/>
<path d="M78.2784 144H66.4602L100.642 50.9091H112.278L146.46 144H134.642L106.824 65.6364H106.097L78.2784 144ZM82.642 107.636H130.278V117.636H82.642V107.636ZM160.96 144V50.9091H216.778V60.9091H172.233V92.3636H212.597V102.364H172.233V144H160.96Z" fill="white"/>
<path d="M133.94 203.727C133.94 208.636 133.054 212.879 131.281 216.455C129.509 220.03 127.077 222.788 123.986 224.727C120.895 226.667 117.365 227.636 113.395 227.636C109.425 227.636 105.895 226.667 102.804 224.727C99.7131 222.788 97.2813 220.03 95.5085 216.455C93.7358 212.879 92.8494 208.636 92.8494 203.727C92.8494 198.818 93.7358 194.576 95.5085 191C97.2813 187.424 99.7131 184.667 102.804 182.727C105.895 180.788 109.425 179.818 113.395 179.818C117.365 179.818 120.895 180.788 123.986 182.727C127.077 184.667 129.509 187.424 131.281 191C133.054 194.576 133.94 198.818 133.94 203.727ZM128.486 203.727C128.486 199.697 127.812 196.295 126.463 193.523C125.13 190.75 123.319 188.652 121.031 187.227C118.759 185.803 116.213 185.091 113.395 185.091C110.577 185.091 108.024 185.803 105.736 187.227C103.463 188.652 101.652 190.75 100.304 193.523C98.9706 196.295 98.304 199.697 98.304 203.727C98.304 207.758 98.9706 211.159 100.304 213.932C101.652 216.705 103.463 218.803 105.736 220.227C108.024 221.652 110.577 222.364 113.395 222.364C116.213 222.364 118.759 221.652 121.031 220.227C123.319 218.803 125.13 216.705 126.463 213.932C127.812 211.159 128.486 207.758 128.486 203.727ZM180.327 180.455V227H174.872L149.509 190.455H149.054V227H143.418V180.455H148.872L174.327 217.091H174.781V180.455H180.327Z" fill="white"/>
</svg>
